<svg width="51" height="53" viewBox="0 0 51 53" fill="none" xmlns="http://www.w3.org/2000/svg">
<path d="M25.7551 11.3311L27.3007 12.6492M30.9373 15.7507L34.6851 18.9471M38.6651 22.3414L39.9925 23.4734M48.6477 21.1878L24.2507 49.7941C23.9508 50.1458 23.5021 50.3458 23.0035 50.3502C22.505 50.3546 21.9973 50.163 21.5922 49.8175L15.5464 44.6613C16.2213 43.87 16.5065 42.8022 16.3392 41.693C16.1719 40.5838 15.566 39.5239 14.6545 38.7466C14.2033 38.36 13.6902 38.0544 13.1448 37.8474C12.5993 37.6404 12.0322 37.5362 11.4757 37.5404C10.9193 37.5446 10.3845 37.6572 9.90202 37.872C9.41957 38.0867 8.99881 38.3992 8.66406 38.7917L2.58188 33.6045C2.1768 33.259 1.90742 32.788 1.83308 32.295C1.75874 31.802 1.88559 31.3275 2.18555 30.9758L26.5825 2.36951C26.8825 2.0178 27.331 1.81761 27.8295 1.8132C28.328 1.80879 28.8357 2.00044 29.2408 2.34592L35.2866 7.50207C34.9519 7.89457 34.7097 8.35942 34.5738 8.86972C34.4379 9.38002 34.411 9.92591 34.4947 10.4761C34.5784 11.0262 34.7711 11.5699 35.0616 12.0758C35.3521 12.5818 35.7347 13.0401 36.1876 13.4246C37.099 14.2019 38.2412 14.633 39.3629 14.6231C40.4847 14.6132 41.4941 14.163 42.169 13.3717L48.215 18.528C48.4222 18.6975 48.5979 18.9013 48.7322 19.1277C48.8665 19.3541 48.9566 19.5985 48.9969 19.8463C49.0373 20.0942 49.0271 20.3405 48.9671 20.5709C48.9072 20.8013 48.7985 21.011 48.6477 21.1878Z" stroke="#F1FFF3" stroke-width="3.625" stroke-linecap="round" stroke-linejoin="round"/>
</svg>
