<svg width="18" height="30" viewBox="0 0 18 30" fill="none" xmlns="http://www.w3.org/2000/svg">
<path d="M1.84662 1.82388L0.84967 10.887C0.852647 11.609 1.06942 12.3138 1.47268 12.9127C1.87594 13.5115 2.4476 13.9775 3.11545 14.2517L2.42427 26.5549C2.41054 27.0909 2.60965 27.6105 2.97799 28C3.34633 28.3896 3.85406 28.6175 4.38996 28.6338C4.92585 28.6175 5.43344 28.3896 5.80178 28C6.17013 27.6105 6.36923 27.0909 6.35551 26.5549L5.88531 14.2517C6.5536 13.9781 7.1257 13.5123 7.52905 12.9133C7.93241 12.3144 8.14886 11.6091 8.15109 10.887L7.34112 1.82388M4.49186 2.12977V11.4875M16.0813 14.0818C15.7545 14.1255 15.4562 14.291 15.2462 14.5452C15.0361 14.7993 14.9298 15.1234 14.9484 15.4526L15.5716 26.5606C15.5853 27.0966 15.3862 27.6161 15.0178 28.0057C14.6495 28.3953 14.1418 28.6231 13.6059 28.6394C13.07 28.6231 12.5624 28.3953 12.194 28.0057C11.8257 27.6161 11.6266 27.0966 11.6403 26.5606L12.0765 14.9314C12.0848 14.7169 12.0507 14.5028 11.9758 14.3015C11.901 14.1003 11.7869 13.9158 11.6403 13.7589V0.849609C11.6403 0.849609 18.1262 1.1215 16.0643 14.0818H16.0813Z" stroke="#F1FFF3" stroke-width="1.69934" stroke-linecap="round" stroke-linejoin="round"/>
</svg>
