<svg width="51" height="53" viewBox="0 0 51 53" fill="none" xmlns="http://www.w3.org/2000/svg">
<path d="M44.4137 28.9643V47.866C44.4137 48.7362 44.068 49.5707 43.4527 50.186C42.8374 50.8013 42.0029 51.147 41.1327 51.147H9.26399C8.39382 51.147 7.55928 50.8013 6.94398 50.186C6.32868 49.5707 5.98306 48.7362 5.98306 47.866V28.9643M25.1984 16.9743C25.1984 16.9743 37.1523 16.2867 40.1197 13.9707C41.5362 12.8616 42.4566 11.2373 42.6803 9.45212C42.904 7.66698 42.4129 5.86581 41.3138 4.44141C40.204 3.01875 38.5759 2.09329 36.7857 1.86726C34.9956 1.64123 33.1888 2.13302 31.7602 3.23517C28.817 5.55115 25.1984 16.9743 25.1984 16.9743ZM25.1984 16.9743C25.1984 16.9743 13.2443 16.2867 10.277 13.9707C8.85958 12.8617 7.93941 11.2362 7.71785 9.45018C7.4963 7.66416 7.99143 5.86312 9.0949 4.44139C10.2028 3.01601 11.831 2.08845 13.6221 1.8623C15.4132 1.63616 17.2211 2.12989 18.6485 3.23515C21.5797 5.55113 25.1984 16.9743 25.1984 16.9743ZM25.1984 16.9743V51.147M4.84911 16.9743H45.5597C47.2385 16.9743 48.5994 18.3352 48.5994 20.014V24.5253C48.5994 26.2041 47.2385 27.565 45.5597 27.565H4.84911C3.17032 27.565 1.80939 26.2041 1.80939 24.5253V20.014C1.80939 18.3352 3.17032 16.9743 4.84911 16.9743Z" stroke="#F1FFF3" stroke-width="3.61872" stroke-linecap="round" stroke-linejoin="round"/>
</svg>
