<svg width="36" height="57" viewBox="0 0 36 57" fill="none" xmlns="http://www.w3.org/2000/svg">
<path d="M2.48912 23.1842C2.3129 22.237 2.15853 21.2567 2.03737 20.2544C0.836821 10.4628 2.97366 2.14703 6.80661 1.67342C10.6395 1.19981 14.7369 8.76658 15.9374 18.5582C16.0696 19.6596 16.1687 20.8161 16.2238 21.8625M3.14995 7.03733L7.94113 8.84366M1.70709 13.4035L7.59969 15.9588M6.78464 48.5829H29.2206M18.2614 23.5807C17.4751 22.832 16.8492 21.9316 16.4213 20.9339C15.9934 19.9361 15.7725 18.8618 15.7721 17.7762C15.7721 15.6544 16.6145 13.6194 18.1137 12.1181C19.613 10.6167 21.6467 9.77178 23.7685 9.76887C25.8921 9.76887 27.9288 10.6125 29.4305 12.1142C30.9321 13.6158 31.7758 15.6525 31.7758 17.7762C31.7775 18.6722 31.6286 19.562 31.3354 20.4086M23.7684 12.4233C23.7684 12.4233 23.526 7.40077 27.3149 4.97765M2.19182 23.5807L4.39466 20.6619C4.55406 20.4541 4.75911 20.2856 4.99404 20.1697C5.22896 20.0538 5.48743 19.9936 5.74938 19.9936C6.01134 19.9936 6.2698 20.0538 6.50473 20.1697C6.73965 20.2856 6.94471 20.4541 7.10411 20.6619L9.14157 23.3273C9.22061 23.4323 9.32304 23.5174 9.44059 23.576C9.55814 23.6346 9.68758 23.6651 9.81894 23.6651C9.95029 23.6651 10.08 23.6346 10.1975 23.576C10.3151 23.5174 10.4173 23.4323 10.4963 23.3273L12.534 20.6619C12.6934 20.4541 12.8985 20.2856 13.1334 20.1697C13.3683 20.0538 13.6268 19.9936 13.8888 19.9936C14.1507 19.9936 14.4092 20.0538 14.6441 20.1697C14.879 20.2856 15.0841 20.4541 15.2435 20.6619C15.2435 20.6619 16.3449 22.1268 17.182 23.2392C17.2724 23.3579 17.3892 23.4542 17.523 23.5204C17.6567 23.5867 17.8037 23.6211 17.9529 23.6211C18.1022 23.6211 18.2494 23.5867 18.3832 23.5204C18.5169 23.4542 18.6337 23.3579 18.7241 23.2392L20.7065 20.6839C20.8648 20.4762 21.0689 20.3078 21.3029 20.1919C21.5369 20.076 21.7947 20.0156 22.0558 20.0156C22.317 20.0156 22.5747 20.076 22.8088 20.1919C23.0428 20.3078 23.2469 20.4762 23.4052 20.6839L25.4426 23.3494C25.5228 23.4544 25.6262 23.5395 25.7446 23.5981C25.8631 23.6567 25.9935 23.6872 26.1257 23.6872C26.2578 23.6872 26.388 23.6567 26.5064 23.5981C26.6249 23.5395 26.7282 23.4544 26.8084 23.3494L28.8461 20.6839C29.0044 20.4762 29.2085 20.3078 29.4426 20.1919C29.6766 20.076 29.934 20.0156 30.1952 20.0156C30.4564 20.0156 30.7141 20.076 30.9481 20.1919C31.1822 20.3078 31.3863 20.4762 31.5446 20.6839L33.7474 23.6027C34.0583 24.0198 34.228 24.5253 34.232 25.0456V52.2176C34.232 52.5835 34.1598 52.9459 34.0198 53.284C33.8798 53.6221 33.6746 53.9293 33.4158 54.188C33.1571 54.4468 32.8499 54.652 32.5118 54.792C32.1737 54.9321 31.8113 55.0042 31.4453 55.0042H4.42773C3.69059 55.0013 2.98442 54.7064 2.46421 54.1841C1.944 53.6619 1.65212 52.9547 1.65213 52.2176V25.0235C1.66619 24.4958 1.85613 23.988 2.19182 23.5807Z" stroke="#F1FFF3" stroke-width="3.30426" stroke-linecap="round" stroke-linejoin="round"/>
</svg>
