<svg width="51" height="44" viewBox="0 0 51 44" fill="none" xmlns="http://www.w3.org/2000/svg">
<path d="M20.8501 31.54H30.8501C31.7696 31.5374 32.6506 31.1709 33.3008 30.5208C33.951 29.8706 34.3174 28.9895 34.3201 28.07C34.3148 27.1523 33.9473 26.2738 33.2974 25.6257C32.6475 24.9777 31.7679 24.6126 30.8501 24.61H24.51C23.0873 24.5932 21.6751 24.364 20.3201 23.93C17.8101 23.39 13.7501 23.36 11.8901 28.07H7.89014M34.27 28.07L43.27 22.77C44.0554 22.2941 44.9977 22.149 45.8899 22.3664C46.7821 22.5839 47.5516 23.1461 48.03 23.93C48.5041 24.7149 48.6494 25.6552 48.4341 26.5465C48.2187 27.4378 47.6603 28.2081 46.8801 28.69L35.1101 37.55C33.0118 39.1291 30.4563 39.9821 27.8301 39.98H7.83008M30.9302 12.38L28.48 14.84C28.4651 14.8555 28.4472 14.8677 28.4275 14.8761C28.4077 14.8845 28.3864 14.8887 28.365 14.8887C28.3435 14.8887 28.3225 14.8845 28.3027 14.8761C28.283 14.8677 28.2649 14.8555 28.25 14.84L26.74 12.37H20.1401C19.5597 13.8801 18.535 15.1788 17.2014 16.0947C15.8678 17.0105 14.288 17.5005 12.6702 17.5C10.5484 17.5 8.51347 16.6572 7.01318 15.1569C5.51289 13.6566 4.67017 11.6217 4.67017 9.5C4.67017 7.37827 5.51289 5.34343 7.01318 3.84314C8.51347 2.34285 10.5484 1.5 12.6702 1.5C14.2868 1.49871 15.8657 1.98727 17.1992 2.90125C18.5327 3.81523 19.5581 5.11174 20.1401 6.62H34.8501L38.6101 9.81L33.6101 14.98L30.9302 12.43M7.8501 26.3C7.8501 26.1568 7.79316 26.0194 7.69189 25.9182C7.59062 25.8169 7.45328 25.76 7.31006 25.76H2.04004C1.89682 25.76 1.75947 25.8169 1.6582 25.9182C1.55693 26.0194 1.5 26.1568 1.5 26.3V41.73C1.5 41.8732 1.55693 42.0105 1.6582 42.1118C1.75947 42.2131 1.89682 42.27 2.04004 42.27H7.31006C7.45328 42.27 7.59062 42.2131 7.69189 42.1118C7.79316 42.0105 7.8501 41.8732 7.8501 41.73V26.3Z" stroke="#F1FFF3" stroke-width="3" stroke-linecap="round" stroke-linejoin="round"/>
</svg>
