<svg width="27" height="26" viewBox="0 0 27 26" fill="none" xmlns="http://www.w3.org/2000/svg">
<path d="M18.1733 12.0176L10.806 16.7458C10.666 16.8357 10.4874 16.8396 10.3437 16.7558L1.10652 11.3758C0.820318 11.2091 0.811509 10.7988 1.0903 10.6199L16.155 0.956794C16.295 0.867019 16.4734 0.863159 16.6171 0.946797L25.8541 6.32263C26.1404 6.48925 26.1493 6.89963 25.8705 7.07852L21.5212 9.86919M18.1778 15.7729L10.8059 20.5013C10.6659 20.591 10.4875 20.5949 10.3438 20.5112L1.1064 15.1352C0.820201 14.9686 0.811188 14.5584 1.0898 14.3794L3.55085 12.7985M23.41 8.65957L25.8539 10.0822C26.1402 10.2489 26.149 10.6594 25.8701 10.8382L21.481 13.6515M23.5891 12.2975L25.8833 13.7192C26.1602 13.8909 26.1634 14.2928 25.8891 14.4688L10.806 24.148C10.666 24.2379 10.4874 24.2417 10.3437 24.158L1.10652 18.7779C0.820315 18.6113 0.811505 18.2009 1.09029 18.0221L3.45685 16.5041M11.6223 4.15156L21.2608 9.76358C21.3971 9.84294 21.481 9.98878 21.481 10.1465V17.0519C21.481 17.2027 21.4042 17.3432 21.2773 17.4247L18.8603 18.977C18.5654 19.1663 18.1778 18.9546 18.1778 18.6041V12.2723C18.1778 12.1146 18.094 11.9688 17.9578 11.8894L8.71033 6.50098C8.42429 6.3343 8.41541 5.92421 8.69398 5.74531L11.1599 4.16165C11.2999 4.07173 11.4785 4.06783 11.6223 4.15156Z" stroke="#F1FFF3" stroke-width="1.77237" stroke-linecap="round" stroke-linejoin="round"/>
</svg>
