<svg width="44" height="42" viewBox="0 0 44 42" fill="none" xmlns="http://www.w3.org/2000/svg">
<path d="M29.9934 7.00878C29.9934 10.0512 23.6149 12.5176 15.7467 12.5176C7.87846 12.5176 1.5 10.0512 1.5 7.00878C1.5 3.96637 7.87846 1.5 15.7467 1.5C23.6149 1.5 29.9934 3.96637 29.9934 7.00878ZM29.9934 7.00878V15.2765M1.50003 7.01794V16.4185C1.50003 19.4606 7.84394 21.8999 15.7467 21.8999C16.8161 21.8999 17.8492 21.8542 18.8461 21.7628M1.50003 15.2857V25.8282C1.50003 28.8703 7.84394 31.3095 15.7467 31.3095C16.4355 31.3095 17.1061 31.2913 17.7586 31.2547M1.50003 23.9919V34.5801C1.50003 37.6223 7.84394 40.0615 15.7467 40.0615C18.4956 40.0855 21.2364 39.757 23.9032 39.084M26.7942 31.1268C26.7942 31.5511 26.8773 31.9712 27.0387 32.3631C27.2 32.7549 27.4365 33.1108 27.7345 33.4104C28.0325 33.71 28.3861 33.9474 28.7753 34.1089C29.1645 34.2704 29.5815 34.3529 30.0024 34.3517C30.8509 34.3517 31.6646 34.012 32.2646 33.4072C32.8645 32.8024 33.2016 31.9821 33.2016 31.1268C33.1379 30.5248 32.9127 29.9516 32.5502 29.4688C32.1878 28.9859 31.7018 28.6116 31.1443 28.3861C29.5312 27.4726 26.7942 27.1163 26.7942 24.7319C26.793 24.3069 26.8752 23.8858 27.036 23.4929C27.1968 23.1 27.433 22.743 27.7312 22.4425C28.0293 22.1419 28.3835 21.9037 28.7733 21.7416C29.1631 21.5795 29.5808 21.4967 30.0024 21.4979C30.4233 21.4979 30.8401 21.5816 31.2289 21.7442C31.6176 21.9069 31.9707 22.1453 32.2679 22.4457C32.5651 22.7461 32.8004 23.1027 32.9607 23.495C33.1209 23.8873 33.2028 24.3076 33.2016 24.7319M29.9934 21.4339V19.9083M29.9934 35.8682V34.3517M42.5 27.8928C42.5 34.8556 36.9006 40.5 29.9934 40.5C23.0861 40.5 17.4867 34.8556 17.4867 27.8928C17.4867 20.9301 23.0861 15.2857 29.9934 15.2857C36.9006 15.2857 42.5 20.9301 42.5 27.8928Z" stroke="#F1FFF3" stroke-width="3" stroke-linecap="round" stroke-linejoin="round"/>
</svg>
