<svg width="48" height="49" viewBox="0 0 48 49" fill="none" xmlns="http://www.w3.org/2000/svg">
<path d="M23.9501 9.1V26.93M14.8501 40.67V44.01C14.8501 44.6783 14.5847 45.3193 14.1121 45.7919C13.6395 46.2645 12.9984 46.53 12.3301 46.53H9.64014C8.97179 46.53 8.33075 46.2645 7.85815 45.7919C7.38556 45.3193 7.12012 44.6783 7.12012 44.01V37.01M33.0801 40.67V44.01C33.0801 44.6783 33.3455 45.3193 33.8181 45.7919C34.2907 46.2645 34.9318 46.53 35.6001 46.53H38.29C38.9584 46.53 39.5994 46.2645 40.072 45.7919C40.5446 45.3193 40.8101 44.6783 40.8101 44.01V37.01M20.2701 36.31H27.6201M11.2801 30.95C11.2801 30.95 11.0001 34.59 15.0201 34.11M36.6101 30.95C36.6101 30.95 36.8901 34.59 32.8701 34.11M40.8501 12.04H43.54C43.9204 12.04 44.2972 12.1151 44.6484 12.261C44.9997 12.4068 45.3187 12.6206 45.5872 12.89C45.8557 13.1594 46.0682 13.4792 46.2129 13.831C46.3575 14.1827 46.4315 14.5597 46.4302 14.94V19.48M7.0801 12.04H4.39015C4.00979 12.04 3.63304 12.1151 3.28176 12.261C2.93047 12.4068 2.61153 12.6206 2.34303 12.89C2.07454 13.1594 1.86195 13.4792 1.7173 13.831C1.57266 14.1827 1.4987 14.5597 1.50002 14.94V19.48M10.9201 1.5H36.9801C39.1009 1.5 40.8201 3.21923 40.8201 5.34V36.84C40.8201 38.9608 39.1009 40.68 36.9801 40.68H10.9201C8.79932 40.68 7.0801 38.9608 7.0801 36.84V5.34C7.0801 3.21923 8.79932 1.5 10.9201 1.5ZM10.7901 9.1H37.1001C38.0841 9.1 39.0277 9.49087 39.7235 10.1866C40.4192 10.8824 40.8101 11.826 40.8101 12.81V26.93H7.0801V12.81C7.0801 11.826 7.47097 10.8824 8.16673 10.1866C8.86249 9.49087 9.80614 9.1 10.7901 9.1Z" stroke="#F1FFF3" stroke-width="3" stroke-linecap="round" stroke-linejoin="round"/>
</svg>
