<svg width="15" height="13" viewBox="0 0 15 13" fill="none" xmlns="http://www.w3.org/2000/svg">
<path d="M2.11098 5.05412H11.9692M2.53992 0.46875V2.82699M5.31025 0.46875V2.82699M8.77175 0.46875V2.82699M11.5421 0.46875V2.82699M1.00397 1.82675H13.078C13.2201 1.82675 13.3564 1.88319 13.4568 1.98366C13.5573 2.08412 13.6137 2.22038 13.6137 2.36246V10.9937C13.6137 11.2849 13.4981 11.5641 13.2922 11.7699C13.0864 11.9757 12.8072 12.0914 12.5161 12.0914H1.5659C1.27479 12.0914 0.995601 11.9757 0.789754 11.7699C0.583906 11.5641 0.468262 11.2849 0.468262 10.9937V2.36246C0.468262 2.22038 0.524702 2.08412 0.625167 1.98366C0.725632 1.88319 0.861892 1.82675 1.00397 1.82675Z" stroke="#093030" stroke-width="0.936554" stroke-linecap="round" stroke-linejoin="round"/>
</svg>
